<svg xmlns="http://www.w3.org/2000/svg" width="322" height="144" viewBox="0 0 322 144">
  <g fill="#FFFFFF" fill-rule="evenodd">
    <path d="M227.046789 143.60978C227.23679 143.38024 234.338093 133.808383 242.793157 122.308383 251.24822 110.831337 258.468274 101.052894 258.800777 100.616766 262.862057 95.2914172 267.849594 88.2674651 267.778344 87.9461078 267.707093 87.739521 263.764564 80.991018 258.990778 72.9111776 240.465639 41.5788423 233.174335 29.2065868 233.174335 29.0918164 233.174335 29.0459082 241.629398 29.0229541 251.984476 29.0459082L270.794616 29.1147705 271.792124 32.0988024C272.338378 33.751497 274.357143 39.8343313 276.257157 45.6417166 278.180922 51.4491018 279.962185 56.8662675 280.247187 57.6467066 280.508439 58.4500998 280.817191 59.0239521 280.912192 58.9091816 281.030943 58.8173653 282.717206 55.2365269 284.68847 50.9670659L288.250997 43.2085828 286.968488 40.1786427C286.279732 38.502994 284.997223 35.4500998 284.118466 33.3612774 283.23971 31.2724551 282.479704 29.4361277 282.408453 29.2984032 282.313453 29.0688623 286.350983 29 302.144851 29 313.069933 29 322 29.0459082 322 29.1147705 322 29.2065868 317.487466 38.5489022 304.306117 65.7265469 300.292337 73.99002 294.283542 86.3852295 290.958517 93.2714571 287.609742 100.157685 284.427219 106.722555 283.880964 107.847305 282.717206 110.234531 269.037103 138.44511 267.422091 141.773453L266.353333 144 246.521935 144C227.664293 144 226.714286 143.977046 227.046789 143.60978zM54.7386393 113.250956C53.2327292 110.089599 51.2009456 105.882205 50.2448122 103.906357 49.2647754 101.930509 47.0417652 97.3279456 45.2968216 93.6784383 43.5518781 90.0289309 41.4483846 85.7053106 40.6356711 84.0316512 39.8229577 82.381237 37.6238508 77.8251641 35.7354873 73.9199587 33.8471237 70.0147534 31.7914368 65.7376237 31.1221434 64.389398 30.4767533 63.0411723 27.8473864 57.6017792 25.2658261 52.3018576 16.5889152 34.3565091 11.3062779 23.4079869 5.97583399 12.4362195 3.059627 6.4389398.525873391 1.1622635.334646703.743848641L0 0 20.0070922.0464905401 39.9902811.11622635 40.1815077.697358101C41.4961912 4.99773306 46.7071185 22.0597613 49.2647754 30.4048132 50.5794589 34.7051882 52.0375624 39.4472233 52.4678224 40.9116753 52.9219858 42.3761273 53.9259259 45.6769556 54.714736 48.2339353 55.5035461 50.790915 56.9616496 55.6026859 57.9655897 58.9267595 58.9934331 62.2508332 59.9017599 65.0402656 59.9973733 65.1564919 60.0690833 65.249473 60.76228 63.785021 61.5032834 61.9021541 62.2203835 59.996042 63.5589703 56.6254778 64.4194904 54.3939319 65.3039138 52.162386 66.4990806 49.1172556 67.0727607 47.6528036L68.1006042 44.9795975 65.7102706 38.9358273C64.3716837 35.6117537 63.0809036 32.4039064 62.8418702 31.7995294L62.3877069 30.6837565 76.7058051 30.6837565 91 30.6837565 89.0160231 35.983678C87.0081429 41.3068449 86.3149462 43.1432212 84.7612293 47.1878982 83.9007092 49.4659346 77.5663252 66.2722649 76.1082217 70.2007155 75.6540583 71.4094696 75.0564749 72.9436574 74.8174416 73.5712797 74.3154715 74.8497695 73.9091148 75.9190519 70.0367744 86.2399518 68.5786709 90.1451572 67.024954 94.2828153 66.5707906 95.4218335 66.1405306 96.584097 65.3995272 98.559945 64.9214605 99.8384348 64.4194904 101.116925 63.821907 102.697603 63.5828737 103.325225 62.2681902 106.672544 57.846073 118.574122 57.846073 118.78333 57.846073 119.550424 57.200683 118.411406 54.7386393 113.250956zM121.328083 119.882683C104.415182 118.150446 92.2080753 109.161543 86.4539618 94.2034451 82.7498969 84.582509 81.9578327 72.2461749 84.4039133 62.1102496 86.5005538 53.3788405 90.8103149 45.9114959 96.9138685 40.5041085 102.225358 35.7989792 109.33064 32.1706456 116.901842 30.2979574 134.793174 25.8503227 149.656026 32.919721 158.624988 50.1718618 160.395485 53.5661093 161.583581 56.656045 162.794974 60.9398194 163.330782 62.8827335 163.98307 65.1299594 164.21603 65.9492606 164.44899 66.7685617 164.658654 67.4708198 164.658654 67.517637 164.658654 67.5644542 153.033947 67.6112714 138.823383 67.6112714 121.654227 67.6112714 112.918225 67.6814972 112.825041 67.8453575 112.592081 68.2198951 113.127889 72.3164007 113.803473 75.3361106 116.435922 87.3681328 123.680979 94.4843483 135.957975 97.1295205 138.846679 97.7381442 147.000281 97.9956388 150.937306 97.5976926 154.734555 97.2231549 159.906269 96.2399936 163.121118 95.327058 164.635358 94.8822946 165.939934 94.5779827 165.986526 94.6247999 166.149598 94.7886601 164.79843 97.8317786 163.773406 99.6108325 157.413596 110.54265 144.414425 118.244081 129.668053 119.812457 127.548116 120.023135 123.145171 120.069952 121.328083 119.882683zM134.69999 53.8704211C134.490326 52.3488619 133.511894 49.2589262 132.813014 47.85441 131.927766 46.0753562 129.947605 44.1324421 128.246997 43.3599581 127.035604 42.7981517 126.499796 42.7045172 124.822484 42.6811086 123.075283 42.6811086 122.655955 42.7747431 121.328083 43.4067754 119.41781 44.3431195 117.926866 45.6540013 116.715474 47.5266896 115.806929 48.9312058 114.548945 52.2318189 114.222801 54.1045072L114.059729 54.9706255 124.449748 54.9706255 134.863062 54.9706255 134.69999 53.8704211z"/>
    <path d="M167.863768,108.287805 L174.703704,101.598916 L174.703704,77.5701897 L174.703704,53.5414634 L168.125926,47.2720867 C162.644444,42.0747967 161.619646,40.9794038 161.977134,40.8395664 C162.239291,40.7463415 164.789372,40.0238482 167.673108,39.2547425 C170.556844,38.4623306 174.203221,37.4834688 175.776167,37.0406504 C177.349114,36.6211382 181.209984,35.5723577 184.355878,34.7100271 C187.501771,33.8710027 191.577134,32.7523035 193.412238,32.2628726 C195.247343,31.7501355 198.631562,30.8411924 200.919485,30.2119241 L205.090177,29.0699187 L205.20934,45.9436314 L205.328502,62.8173442 L206.877617,59.7176152 C207.711755,58.0162602 211.548792,50.395122 215.385829,42.8205962 L222.344928,29 L228.660548,29 L235,29 L235,47.5284553 L235,66.0569106 L220.10467,66.0569106 L205.20934,66.0569106 L205.20934,90.5284553 L205.20934,115 L183.116586,115 L161,115 L167.863768,108.287805 Z"/>
  </g>
</svg>
